<svg xmlns="http://www.w3.org/2000/svg" viewBox="0 0 396 403"><defs><style>.cls-1{fill:#f0b3b1;}.cls-2{fill:#2d241d;}.cls-3{fill:#ed9790;}.cls-10,.cls-15,.cls-21,.cls-4,.cls-5{fill:none;stroke-miterlimit:10;}.cls-4{stroke:#000;}.cls-5{stroke:#d9e7f7;}.cls-6{fill:#feffff;}.cls-7{fill:#3a2d23;}.cls-8{fill:#dbecfd;}.cls-9{fill:#f0b2b0;}.cls-10{stroke:#3a2d23;}.cls-11{fill:#daeafb;}.cls-12{fill:#b7d2ef;}.cls-13{fill:#f8fbff;}.cls-14{fill:#9e9d81;}.cls-15{stroke:#f8fbff;}.cls-16{fill:#84836d;}.cls-17{fill:#fdf5ec;}.cls-18{fill:#edbc88;}.cls-19{fill:#fffeff;}.cls-20{fill:#f7fbfd;}.cls-21{stroke:#f9f4f3;stroke-width:1.5px;}.cls-22{fill:#efb2af;}.cls-23{fill:#ee9590;}.cls-24{fill:#f8faff;}.cls-25{fill:#8b94b0;}.cls-26{fill:#8f97b5;}.cls-27{fill:#bf8888;}.cls-28{fill:#edb529;}.cls-29{fill:#d9e7f7;}</style></defs><title>doctor</title><g id="Слой_2" data-name="Слой 2"><path class="cls-1" d="M252.93,100.62S247.48,127.86,262,146s-43.58,7.26-43.58,7.26V97S245.67,84.27,252.93,100.62Z"/><path class="cls-2" d="M269.28,86.09s-9.08,18.16-20,18.16S242,87.91,242,87.91,267.46,77,269.28,86.09Z"/><path class="cls-3" d="M218.43,126.79c13.84-2.53,24.39-20.35,29.84-31.84-10.41-7-29.84,2-29.84,2Z"/><ellipse class="cls-1" cx="222.06" cy="78.83" rx="30.87" ry="34.5"/><path class="cls-4" d="M216.61,75.19l-1.82,5.45A8,8,0,0,0,213,86.09"/><path class="cls-5" d="M252.93,69.46s-4.24,4.87-6.35,13.91"/><path class="cls-6" d="M189.37,82.46s36.32,5.45,58.11-1.82c0,0,5.33,22.87-14.58,30.5S191.19,104.25,189.37,82.46Z"/><path class="cls-7" d="M290.16,8c-17.56,0-32,11.66-33.45,26.51-15.25-10.34-29.59-8.25-38.81-4.78a21.79,21.79,0,1,0-13.2,34.11,3.91,3.91,0,0,0,2.83-.79l.11-.06a21.62,21.62,0,0,0,4.87-2.46c10.45-4.39,23.56-4.79,31.34-1.68,9.08,3.63,10.9,25.42,10.9,25.42h16.34a36.14,36.14,0,0,0,4.72-21,37.72,37.72,0,0,0,14.35,2.81c18.56,0,33.6-13,33.6-29S308.72,8,290.16,8Z"/><polygon class="cls-8" points="167.58 258.61 162.13 393 349.18 393 329.2 251.35 167.58 258.61"/><path class="cls-2" d="M285.62,53.4c-3.63,3.63-29.06,9.08-34.5,1.82S222.06,44.32,213,51.58c-6.84,5.48-17.8,8.89-22.79,10.24a21.68,21.68,0,0,0,14.51,2,3.91,3.91,0,0,0,2.83-.79l.11-.06a21.62,21.62,0,0,0,4.87-2.46c10.45-4.39,23.56-4.79,31.34-1.68,6.64,2.66,9.4,15,10.4,21.48,6.29.29,12.56.45,18.62.45a36.18,36.18,0,0,0,2.94-17.48,37.72,37.72,0,0,0,14.35,2.81c11.27,0,21.21-4.81,27.31-12.17C304.87,39.4,288.7,50.32,285.62,53.4Z"/><path class="cls-9" d="M272.83,86.17c-6.87,5.51-16.27,5.37-20.14,3.18-6.11-3.46-4.56-13.86,1.39-20.35s13.65-7.63,18.83-2.89S282,78.83,272.83,86.17Z"/><path d="M229.82,69.75h-1c0-2.66-5-4.49-6.88-5l.24-1C222.49,63.89,229.82,65.77,229.82,69.75Z"/><path d="M206.21,67.93h-1a4,4,0,0,1,4.14-4.13v1A3,3,0,0,0,206.21,67.93Z"/><circle cx="209.35" cy="73.38" r="1.82"/><circle cx="223.63" cy="74.15" r="1.95"/><circle class="cls-10" cx="200.27" cy="35.24" r="18.16"/><ellipse class="cls-10" cx="295.61" cy="43.41" rx="29.96" ry="26.33"/><path class="cls-11" d="M332.84,253.17c-7.27,12.71-47.22,32.68-47.22,32.68,7.26,3.64,12.71,65.38,12.71,65.38,56.3-1.81,81.72-45.4,87.17-61.74s1.82-29.06-30.87-92.62-94.43-56.3-94.43-56.3c-27.24,20-40.87,4.54-40.87,4.54s-49,10.9-72.64,36.32-29,79.91-29,79.91L88.58,186.88,30.47,214.12s16.34,87.17,52.66,118,56.3,41.77,81.72,18.16Z"/><path class="cls-12" d="M341,250.44s-1.82-5.45-10.9-1.81-30.87,23.6-21.79,34.5,30.87-10.9,30.87-10.9S348.27,257.71,341,250.44Z"/><path class="cls-11" d="M350.09,252.26s-1.82-5.45-10.9-1.82S308.32,274.05,317.4,285s30.87-10.9,30.87-10.9S357.35,259.52,350.09,252.26Z"/><path class="cls-12" d="M262.92,239.54s9.08-3.63,10.9-1.81,20,52.66,20,52.66L266.55,294l-10.89-50.85,7.26-3.64"/><path class="cls-12" d="M293.22,166.7a222,222,0,0,1,16.41-15.95c-25.78-13-49.43-10.18-49.43-10.18-27.24,20-40.87,4.54-40.87,4.54s-25.76,5.73-48.93,18.57c4.69,2.76,9.48,6.19,10.47,9.15,2,6.13,8.17-8.17,8.17-8.17s-10.21,28.6-8.17,32.68c1.94,3.87,47.88,53.62,59.63,109.23l3.86-2.23c5.06-16.46,21.38-54.27,73.37-135.6C317.73,168.74,303.43,162.62,293.22,166.7Z"/><path class="cls-13" d="M187.55,173.26c1.82,5.45,7.27-7.26,7.27-7.26s-9.08,25.42-7.27,29.05S234.77,247.72,242,300.38c0,0-3.64-20,67.19-130.75,0,0-12.71-5.45-21.79-1.82,0,0,11.08-12.08,19.73-18.25-24.8-11.59-47-9-47-9-27.24,20-40.87,4.54-40.87,4.54s-23.88,5.32-46.33,17.17C177.92,164.76,186.28,169.45,187.55,173.26Z"/><path class="cls-14" d="M243.85,244.08s24.56-79.8,37-102.55a83.47,83.47,0,0,0-20.63-1c-27.24,20-40.87,4.54-40.87,4.54s-7.52,1.68-18.07,5.23C210.92,165.44,242.32,216.44,243.85,244.08Z"/><path class="cls-15" d="M174.84,236.82h27.24V251.1a11.15,11.15,0,0,1-11.14,11.15h0a16.1,16.1,0,0,1-16.1-16.1Z"/><path class="cls-16" d="M247.59,232.17c-7.19-31.22-29.83-67.49-40.68-83.65-1.75.54-3.65,1.15-5.65,1.82,9.66,15.1,41.06,66.1,42.59,93.74C243.85,244.08,245.27,239.47,247.59,232.17Z"/><circle class="cls-13" cx="189.37" cy="242.27" r="1.82"/><polygon class="cls-17" points="186.65 275.87 270.18 244.99 308.32 339.43 233.86 370.3 186.65 275.87"/><path class="cls-18" d="M253.83,257.64a3.83,3.83,0,0,0-5.15-2.81l-10.28,4v-3a8.13,8.13,0,0,0-8.13-8.13H230a6.11,6.11,0,0,0-6.11,6.1v10.72l-8.45,3.3a5.2,5.2,0,0,0-3.15,6.1l.71,2.83,41.77-14.52Z"/><polygon class="cls-19" points="197.54 279.94 266.12 254.07 297.42 333.21 236.3 359.08 197.54 279.94"/><circle class="cls-20" cx="231.14" cy="253.17" r="1.82"/><line class="cls-21" x1="204.81" y1="284.95" x2="242.94" y2="270.42"/><line class="cls-21" x1="226.6" y1="283.13" x2="264.74" y2="268.6"/><line class="cls-21" x1="215.7" y1="295.84" x2="241.13" y2="284.95"/><line class="cls-21" x1="244.76" y1="288.58" x2="268.37" y2="279.5"/><path class="cls-22" d="M48.63,210.49s0-27.24-1.82-34.51-5.45-18.16-12.71-25.42S12.31,132.4,10.49,128.77s-1.82-7.27,7.26-3.64,20,16.35,20,18.16-18.16-27.24-16.34-29,18.16,7.26,21.79,25.42c0,0-2.72-24.51-5.45-32.69-1.62-4.87,3.36-3.48,5.45,0,2.72,4.54,12.71,16.35,10.9,36.32,0,0,14.52-32.68,36.32-12.71a2.52,2.52,0,0,1,0,3.63s-17.26-.9-19.07,8.18S76.78,155.1,84,153.28s3.63-12.71,5.45-14.53,7.26-3.63,7.26-1.81,7.27,23.61-10.89,32.69,0,34.5,0,34.5Z"/><path class="cls-23" d="M77.8,182.15,48.36,194.54c.27,8.29.27,16,.27,16l25.91-4.43,10.07-3.83C82.3,198.51,77.61,190,77.8,182.15Z"/><path class="cls-22" d="M296.52,300.38s-40,3.63-50.85-1.81-20-7.27-21.8-5.45,3.64,7.26,10.9,10.89,7.27,5.45,5.45,5.45-36.32-7.26-43.59-3.63,12.72,9.08,20,10.9l14.53,3.63s-36.32-3.63-38.14-1.82-1.81,3.63,9.08,7.27,25.43,1.81,27.24,3.63-10.89,3.63-21.79,5.45-20,3.63-12.71,7.26,40-5.45,41.77-3.63-23.61,14.53-21.8,16.34,18.17-1.81,29.06-7.26,14.53-7.27,21.79-7.27H302Z"/><path class="cls-23" d="M296.52,300.38s-6.37.58-14.71.93c1.62,8.22-.73,23.59,5.57,39H302Z"/><path class="cls-12" d="M102.81,223.35,91.54,194.46,34.1,221.38s0,3.87,0,9.09c1.43,5.75,3.28,12.67,5.57,20.23C52.38,240.49,92.82,229.93,102.81,223.35Z"/><path class="cls-12" d="M308.47,273.07q-2.61,1.62-5.15,3.1c-1.95,3.62-4.08,7.79-4.08,8.78,0,1.39,1.07,45.72,1.57,66.14a94.31,94.31,0,0,0,47.95-15.59C340,316.35,315.58,282.71,308.47,273.07Z"/><path class="cls-13" d="M30.47,214.12l58.11-27.24s16.34,20,12.71,27.24-67.19,21.79-69,34.51S30.47,214.12,30.47,214.12Z"/><path class="cls-24" d="M309.23,273.14s25.42,44.94,18.16,61.79l-10.9,7.49,9.08,5.62s-29.05,7.49-29.05,5.61,0-59.91-12.72-67.4l25.43-13.11"/><circle class="cls-25" cx="352.81" cy="320.36" r="3.63"/><circle class="cls-25" cx="341.92" cy="329.44" r="3.63"/><circle class="cls-25" cx="50.44" cy="255.89" r="3.63"/><circle class="cls-26" cx="55.89" cy="266.79" r="3.63"/><ellipse class="cls-27" cx="262.92" cy="78.83" rx="7.07" ry="1.82" transform="matrix(0.82, -0.58, 0.58, 0.82, 2.54, 165.67)"/><circle class="cls-28" cx="257.47" cy="87" r="1.82"/><path class="cls-29" d="M199.94,83.63c-6.38-.55-10.57-1.17-10.57-1.17a33.51,33.51,0,0,0,25.54,29.93C204.55,102.71,201.08,90.62,199.94,83.63Z"/><path class="cls-29" d="M240.6,106.5c10.65-9.68,6.88-25.86,6.88-25.86-1.37.46-2.81.87-4.28,1.23C243.64,86.44,244.2,97.52,240.6,106.5Z"/><path class="cls-12" d="M167.59,282.33c.6-4.05.9-6.46.9-6.46A34.4,34.4,0,0,0,167.59,282.33Z"/><path class="cls-12" d="M163.84,351.23c.86-19.82,2.46-54.49,3.75-68.9-2.41,16.4-9.8,59.83-22.69,79.87C151.12,360.66,157.31,357.09,163.84,351.23Z"/><path class="cls-16" d="M243.85,244.08s24.56-79.8,37-102.55c-1.06-.17-2.08-.31-3.09-.44-8.36,18.37-30.27,67.75-35.67,92A59.77,59.77,0,0,1,243.85,244.08Z"/><path class="cls-16" d="M264,140.35c-2.39.07-3.75.22-3.75.22-27.24,20-40.87,4.54-40.87,4.54s-7.52,1.68-18.07,5.23c.79,1.24,1.75,2.75,2.8,4.44,6.26,1.2,13.48,1.57,20.37-.5C224.43,154.28,252.23,164.36,264,140.35Z"/></g></svg>