<svg id="Слой_2" data-name="Слой 2" xmlns="http://www.w3.org/2000/svg" viewBox="0 0 783.75 285.98"><defs><style>.cls-1{fill:none;stroke:#b7d2ef;stroke-miterlimit:10;}</style></defs><title>skin</title><path class="cls-1" d="M788,278.78c-120.06,14.62-219.24,9.4-233.86,8.35s-28.19-3.13-56.38-7.31-194.18,2.09-216.1,8.36S172,298.62,149,291.31,9.13,279.82,9.13,279.82" transform="translate(-5.75 -10.52)"/><path class="cls-1" d="M9.13,295.48s133.63-6.26,145.12-8.35,118-4.17,145.11,4.18,175.4-16.71,217.16-15.66,91.87,24,130.5,19.83S749.33,268.34,788,275.65" transform="translate(-5.75 -10.52)"/><path class="cls-1" d="M131.28,173.34s20.88,30.27,11.48,67.86,16.41,45.63,16.41,45.63-3.88-31-54-32.06-64.73-37.59-64.73-37.59" transform="translate(-5.75 -10.52)"/><path class="cls-1" d="M153.2,128.44s-19.83,25.06,11.49,80.39-8.08,78-8.08,78" transform="translate(-5.75 -10.52)"/><path class="cls-1" d="M96.83,202.57s8.35,8.35,29.23,7.31,18.67,20.2,18.67,20.2" transform="translate(-5.75 -10.52)"/><path class="cls-1" d="M159.47,154.54s-9.4,6.27-7.31,34.46-7.36,24.22-7.36,24.22" transform="translate(-5.75 -10.52)"/><path class="cls-1" d="M180.35,151.41S183.48,165,172,173.34s-11.85,27-11.85,27" transform="translate(-5.75 -10.52)"/><path class="cls-1" d="M201.23,180.64s-1,10.44-13.57,15.66-23,26.1-24,33.41-14.33,25.65-22.82,30" transform="translate(-5.75 -10.52)"/><path class="cls-1" d="M174.08,186.91s-9.94,4.57-8.62,36.73" transform="translate(-5.75 -10.52)"/><path class="cls-1" d="M215.84,196.3s-2.08,25.06-12.52,33.41-28.19,24.61-29.24,34.75" transform="translate(-5.75 -10.52)"/><path class="cls-1" d="M316.07,151.41s23,34.45,6.26,68.91-27.09,53.76,9.94,72.29" transform="translate(-5.75 -10.52)"/><path class="cls-1" d="M253.43,151.41s5.22-6.26,9.39,47,44.33,61.37,44.33,61.37" transform="translate(-5.75 -10.52)"/><path class="cls-1" d="M221.06,194.22s-4.17,26.1,15.66,36.54,39.28,7.17,46.78,15.59" transform="translate(-5.75 -10.52)"/><path class="cls-1" d="M290,157.68s2.09,16.7,16.7,23,19.65,29,19.65,29" transform="translate(-5.75 -10.52)"/><path class="cls-1" d="M232.55,146.19s4.17,52.2,54.29,66.82,42.8,52.2,45.93,57.42S344,282.13,344,282.13" transform="translate(-5.75 -10.52)"/><path class="cls-1" d="M278.48,139.93s10.44,1,5.22,14.61-12.52,42.81,8.36,55.34,21.05,11.34,21,16.11" transform="translate(-5.75 -10.52)"/><path class="cls-1" d="M349.48,149.32S333.82,159.76,338,183.78s-10.13,62.57-10.13,62.57" transform="translate(-5.75 -10.52)"/><path class="cls-1" d="M394.37,230.76s4.17,20.88-18.79,25.05-31.89,10.87-35.78,22.66" transform="translate(-5.75 -10.52)"/><path class="cls-1" d="M710.4,286.83c38.33-34.76,25.36-61.29,18.05-90.53s3.13-59.5,3.13-59.5" transform="translate(-5.75 -10.52)"/><path class="cls-1" d="M719.05,154.54s12.53,32.37-4.17,74.13,11.4,50.81,11.4,50.81" transform="translate(-5.75 -10.52)"/><path class="cls-1" d="M778.56,136.8c-1,1,5.22,18.79-17.75,42.8s-16.7,31.32-16.7,37.58-2.2,24.32-7.89,26.26" transform="translate(-5.75 -10.52)"/><path class="cls-1" d="M757.68,222.4s-2.09,30.28-18.79,36.54-21,15.28-21,15.28" transform="translate(-5.75 -10.52)"/><path class="cls-1" d="M748.28,132.62s10.44,18.79-4.17,42.8-.1,40.24-.1,40.24" transform="translate(-5.75 -10.52)"/><path class="cls-1" d="M678.34,175.42s7.3-1,12.52,14.62,15.66,28.19,30.28,32.36,15.45,17.14,15.45,17.14" transform="translate(-5.75 -10.52)"/><path class="cls-1" d="M636.58,151.41s-2.09,29.23-18.8,40.72-4.17,56.37,6.27,64.73,19.09,28.62-.9,38.32" transform="translate(-5.75 -10.52)"/><path class="cls-1" d="M678.34,171.25s2.08,19.83-16.71,29.23-48.54,30.38-41.49,51.73" transform="translate(-5.75 -10.52)"/><path class="cls-1" d="M601.08,239.11s16.7,7.31,13.57,24,16.84,25.71,16.84,25.71c1.18-7.7-12.66-23.62-53.38-49.72s-23-71-23-71" transform="translate(-5.75 -10.52)"/><path class="cls-1" d="M585.42,256.86s23.09,2.3,31.38,10.54" transform="translate(-5.75 -10.52)"/><path class="cls-1" d="M633.44,243.28s0,17.75-7.3,21.93-3,18.11-3,18.11" transform="translate(-5.75 -10.52)"/><path class="cls-1" d="M492.5,154.54s4.18,11.49-4.17,20.88-11.49,21.93-6.27,42.81-11.75,52.83-30.41,62.43" transform="translate(-5.75 -10.52)"/><path class="cls-1" d="M466.4,190S456,205.7,468.49,223.45s11.49,33.41,13.57,40.71,11.49,15.2,11.49,15.2" transform="translate(-5.75 -10.52)"/><path class="cls-1" d="M433,252.68s15.66-10.44,29.23-2.09,22.28,15.79,24.71,22" transform="translate(-5.75 -10.52)"/><path class="cls-1" d="M401.68,230.76s0,30.27,11.48,36.54,28.18,11.76,47.5,6.92" transform="translate(-5.75 -10.52)"/><path class="cls-1" d="M513.38,146.19s9.4,37.59-5.22,54.29-28.53,44.22-28.53,44.22-27.84-16-26.8-36.91-12.53-24-12.53-24" transform="translate(-5.75 -10.52)"/><path class="cls-1" d="M530.09,175.42S505,183.78,501.9,202.57s-1.64,47.36-28.48,55.52" transform="translate(-5.75 -10.52)"/><path class="cls-1" d="M531.13,190s-1,28.19-14.61,35.5-20.8,11.15-20.8,11.15" transform="translate(-5.75 -10.52)"/><path class="cls-1" d="M6,11.52H375.58s16.7,9.39,11.48,34.45-5.22,30.27-1,39.67,4.17,29.23-4.18,54.29-20.88,58.46-7.31,77.25,30.28,26.1,47,0-5.22-62.64-8.35-77.25-7.31-35.5-1-54.29S410,46,409,38.66s6.27-26.1,13.58-27.14,366.44,0,366.44,0" transform="translate(-5.75 -10.52)"/><path class="cls-1" d="M6,97.12S58.2,77.29,82.21,79.38s30.28,5.22,72,20.88S259.69,73.11,267,68.94s56.93-20.88,116.16,0" transform="translate(-5.75 -10.52)"/><path class="cls-1" d="M414.28,66.11s20.8-13.88,45.86-7.61,78.3,25,104.4,41.76,80.39,2.08,115.88-18.8S788,75.2,788,75.2" transform="translate(-5.75 -10.52)"/><path class="cls-1" d="M6,114.87S46.72,91.9,84.3,93s52.2,20.88,96.05,24,81.43-43.85,114.84-48S362,71,372.44,83.55s10.44,28.19-9.39,81.43,18.79,86.66,35.49,85.61,37.59-21.92,38.63-53.24-13.57-51.16-15.66-62.64S410,85.64,433,75.2,520.69,95,538.44,107.56,598,139.93,655.37,110.7c0,0,56.37-31.32,132.59-15.66" transform="translate(-5.75 -10.52)"/><path class="cls-1" d="M6,46s25.06-1,26.1,0,10.44,12.53,1,11.48-23-3.13-26.1,4.18" transform="translate(-5.75 -10.52)"/><path class="cls-1" d="M7,68.94s4.18-1,5.22-3.14,7.31,0,6.27,4.18,4.17,9.4,6.26,11.48,0,9.17,0,9.17" transform="translate(-5.75 -10.52)"/><path class="cls-1" d="M29.11,89.27s1.95-4.67.9-6.76,8.41-4.8,8.9,3.86" transform="translate(-5.75 -10.52)"/><path class="cls-1" d="M41.48,85.66s2.1-8.37-1-10.46-9.39-1-9.39-6.26,3.13-5.22,8.35-5.22,12.53-1,12.53,3.13-1,5.22,3.13,7.31,5.63,7,5.63,7" transform="translate(-5.75 -10.52)"/><path class="cls-1" d="M49.85,50.14s-3.13,2.09-3.13,5.22-1,4.18-3.14,4.18-4.17-1-4.17-6.26S36.28,49.1,37.32,46s4.18-4.18,5.22-5.22,4.18-6.27,5.22-6.27,4.18,0,5.22,4.18S53,48.06,49.85,50.14Z" transform="translate(-5.75 -10.52)"/><path class="cls-1" d="M26.88,28.22s3.13,2.09,8.35,1,8.35,2.09,7.31,5.22A10.61,10.61,0,0,1,32.1,41.79c-6.26,0-7.31,2.09-8.35,1.05s0-3.14,0-5.22-3.13-5.22-1.05-7.31S23.75,28.22,26.88,28.22Z" transform="translate(-5.75 -10.52)"/><path class="cls-1" d="M6,37.62s13.57-2.09,14.62,2.08S10.18,43.88,6,41.79" transform="translate(-5.75 -10.52)"/><path class="cls-1" d="M7,28.22S14.35,24,19.57,30.31,7,32.4,7,32.4" transform="translate(-5.75 -10.52)"/><path class="cls-1" d="M7,15.69a15.87,15.87,0,0,1,9.4-1c5.22,1,9.4-1.05,10.44,0S30,22,22.7,19.87,11.22,23,9.13,19.87,7,15.69,7,15.69Z" transform="translate(-5.75 -10.52)"/><path class="cls-1" d="M12.26,23S24.79,19.87,29,24s-16.71,2.09-16.71,1.05Z" transform="translate(-5.75 -10.52)"/><path class="cls-1" d="M30,14.65s18.79-2.09,19.84,0-2.09,5.22-1.05,6.26,4.18,9.4,1.05,9.4a15.15,15.15,0,0,1-7.31-2.09c-2.09-1-10.44,1-10.44-2.09s1-4.17,0-6.26S29,15.69,30,14.65Z" transform="translate(-5.75 -10.52)"/><path class="cls-1" d="M51.94,58.5s0-9.4,6.26-7.31,8.35,1,11.48,1,3.14,7.31-2.08,9.4-6.27,5.22-9.4,5.22-2.09-2.09-3.13-4.18S51.94,59.54,51.94,58.5Z" transform="translate(-5.75 -10.52)"/><path class="cls-1" d="M55.07,32.4s2.09-8.36,7.31-3.14,7.3,6.27,10.44,7.31,1,6.27-2.09,6.27-3.13,9.39-8.35,6.26-5.22-4.18-4.18-9.4S55.07,35.53,55.07,32.4Z" transform="translate(-5.75 -10.52)"/><path class="cls-1" d="M53,13.6S49.85,24,56.11,22a124.44,124.44,0,0,1,23-5.22c8.35-1,10.44-2.09,10.44-3.14S53,12.56,53,13.6Z" transform="translate(-5.75 -10.52)"/><path class="cls-1" d="M95.78,13.6S93.7,22,100,19.87s8.35-3.13,10.44-2.09,4.18-4.18,2.09-4.18S95.78,12.56,95.78,13.6Z" transform="translate(-5.75 -10.52)"/><path class="cls-1" d="M144.85,13.6s2.09,9.4,9.4,10.44,8.35-1,11.48,0,8.35-2.08,8.35-5.22,5.22-5.22,4.18-5.22S144.85,12.56,144.85,13.6Z" transform="translate(-5.75 -10.52)"/><path class="cls-1" d="M62.38,27.18S59.24,25.09,61.33,23s4.18-2.09,7.31-3.13,8.35-1.05,9.4,0,11.48,0,13.57,0,3.13,6.26-3.13,5.22S78,24,73.86,25.09,66.55,28.22,62.38,27.18Z" transform="translate(-5.75 -10.52)"/><path class="cls-1" d="M78,32.4s-4.18,3.13-6.27,0,1-5.22,4.18-5.22,8.35-1.05,9.39,0,2.09,6.26-2.08,5.22S78,32.4,78,32.4Z" transform="translate(-5.75 -10.52)"/><path class="cls-1" d="M101,32.4s0,2.08-4.17,1-7.31-4.18-5.22-6.26S94.74,23,95.78,23s13.58-2.09,14.62,0,2.09,11.48-2.09,11.48-3.13-2.08-4.17-2.08S101,31.35,101,32.4Z" transform="translate(-5.75 -10.52)"/><path class="cls-1" d="M90.56,42.84s-6.26,3.13-10.44,1-4.17-8.35,0-8.35,29.24,2.09,31.32,0,6.27-3.13,5.22,2.09-3.13,10.44-11.48,7.3S90.56,42.84,90.56,42.84Z" transform="translate(-5.75 -10.52)"/><path class="cls-1" d="M90.56,50.14S80.12,47,77,48.06s0,4.17,0,6.26-5.22,6.26-3.13,8.35,4.18,3.13,7.31,1,7.31,1,9.39,3.13,12.53,3.13,12.53-2.09,0-6.26-4.17-7.31S94.74,50.14,90.56,50.14Z" transform="translate(-5.75 -10.52)"/><path class="cls-1" d="M130.24,27.18s1-2.09,5.22-1.05,1-4.17,3.13-5.22,4.17,0,8.35,3.13,11.48,6.27,12.53,9.4-1.05,11.48-6.27,5.22-12.52-6.26-16.7-7.31S130.24,30.31,130.24,27.18Z" transform="translate(-5.75 -10.52)"/><path class="cls-1" d="M146.94,44.92s-13.57-1-14.62,0-8.35,4.18-9.39,0,2.09-4.17,3.13-7.3,0-6.27,3.13-6.27,3.13,3.13,5.22,4.18,12.53-1.05,13.57,2.09,2.09,6.26-1,7.3" transform="translate(-5.75 -10.52)"/><path class="cls-1" d="M116.66,60.58s-8.35,3.14-11.48-3.13-6.26-3.13-7.31-4.17,0-7.31,6.27-6.27,12.52,6.27,18.79,6.27,26.1-3.14,29.23,1,2.09,7.31-4.18,7.31S119.8,59.54,116.66,60.58Z" transform="translate(-5.75 -10.52)"/><path class="cls-1" d="M130.24,68.94S125,70,124,74.16s-16.7-3.14-17.75-5.22,2.09-5.22,7.31-4.18,7.31-1,10.44-1S133.37,63.72,130.24,68.94Z" transform="translate(-5.75 -10.52)"/><path class="cls-1" d="M69.68,72.07s-7.3,3.13-10.44,1,2.09-3.13,5.22-4.17,4.18-5.22,6.27-5.22S74.9,68.94,69.68,72.07Z" transform="translate(-5.75 -10.52)"/><path class="cls-1" d="M65.21,80.4c.3,0-4.92-1-3.88-3.11s9.4-4.18,10.44-3.13,9.4,0,10.44,2.08.47,3.18.47,3.18" transform="translate(-5.75 -10.52)"/><path class="cls-1" d="M90.56,73.11a14.1,14.1,0,0,1-7.3,0c-4.18-1-9.4,2.09-9.4,0s1-5.22,3.13-5.22,2.09-1,5.22-1,12.53,1,8.35,6.26" transform="translate(-5.75 -10.52)"/><path class="cls-1" d="M110.4,80.42s-7.31-4.18-12.53-3.13-6.26-3.13-5.22-4.18,4.18-3.13,10.44-1,7.31,1,8.35,2.09,3.14,2.08,2.09,5.22S110.4,80.42,110.4,80.42Z" transform="translate(-5.75 -10.52)"/><path class="cls-1" d="M115.25,85.9s-.67-6.52,2.46-7.57,6.26,0,8.35,3.13,10.44,7.31,19.84,6.27,4.71,11.16,4.71,11.16" transform="translate(-5.75 -10.52)"/><path class="cls-1" d="M172,72.07s-4.18,2.09-3.14,5.22,2.09,6.26-7.3,6.26-23,3.13-26.1,1-9.4-12.53-1.05-15.66,14.62,1,16.71,0,6.26-9.4,12.52-7.31S176.17,68.94,172,72.07Z" transform="translate(-5.75 -10.52)"/><path class="cls-1" d="M157.38,53.28s0-3.14-5.22-3.14S143.81,47,149,46s10.44-4.18,13.57-3.13,5.22,5.22,7.31,7.3,6.26,1,8.35,2.09,8.35,10.44,1,10.44-10.44-6.26-12.52-6.26S157.38,55.36,157.38,53.28Z" transform="translate(-5.75 -10.52)"/><path class="cls-1" d="M186.61,42.84s-5.22-3.14-8.35-2.09-14.62,3.13-14.62-1,2.09-6.26,6.27-8.35,6.26-4.17,6.26-5.22,3.13-2.09,7.31,2.09,8.35,3.13,11.48,2.09,11.49,4.17,4.18,9.39S187.66,42.84,186.61,42.84Z" transform="translate(-5.75 -10.52)"/><path class="cls-1" d="M196,57.45s-4.18-5.22-8.35-5.22S172,49.1,172,47s2.08-3.13,8.35-1,10.44-1,12.53,0,11.48,5.22,8.35,9.39S196,57.45,196,57.45Z" transform="translate(-5.75 -10.52)"/><path class="cls-1" d="M186.61,91.9s1,3.14-6.26,3.14-14.62,1-17.75,1-9.4-4.18-6.26-7.31,2.08-4.17,4.17-3.13,8.35,2.09,13.57,1S189.74,83.55,186.61,91.9Z" transform="translate(-5.75 -10.52)"/><path class="cls-1" d="M187.19,102.75s4.64-.41,3.6-8.76S195,84.6,196,86.68,198.1,93,203.32,93s2,5.68,2,5.68" transform="translate(-5.75 -10.52)"/><path class="cls-1" d="M193.92,80.42s-9.4-2.09-14.62,1-9.39-3.13-6.26-7.3,7.31-6.27,10.44-3.14,10.44,3.14,12.53,3.14,5.22,0,4.17,3.13S198.1,81.46,193.92,80.42Z" transform="translate(-5.75 -10.52)"/><path class="cls-1" d="M213.12,96.08s-1.45-9.4,3.77-11.48,5.22,2.08,10.44-1,17.48-11.22,15-.39" transform="translate(-5.75 -10.52)"/><path class="cls-1" d="M273.26,61.63s-14.61,0-20.88,8.35-14.61,5.22-11.48-2.09,11.48-8.35,15.66-8.35S266,56.41,268,53.28s8.36-2.09,8.36,4.17S273.26,61.63,273.26,61.63Z" transform="translate(-5.75 -10.52)"/><path class="cls-1" d="M366.35,63.91s-2.26-4.37,1.92-6.46,5.22,0,7.31,1,8.3-1.14,8.85,1" transform="translate(-5.75 -10.52)"/><path class="cls-1" d="M379.75,51.19s-5.22-3.13-8.35-1-12.53,6.27-17.75,3.14-3.13-8.36,0-7.31,14.62-6.27,15.66-7.31,7.31-3.13,13.57,5.22S380.8,52.23,379.75,51.19Z" transform="translate(-5.75 -10.52)"/><path class="cls-1" d="M387.74,41.88s-4.86,3-5.9-2.18-2.09-3.13-3.13-6.26-1-8.35,3.13-7.31,5.21,2.71,5.74,4.49" transform="translate(-5.75 -10.52)"/><path class="cls-1" d="M348.73,11.52S344.26,24,358.87,16.74,377.66,22,379.75,23s5.27,2,5.25-.57" transform="translate(-5.75 -10.52)"/><path class="cls-1" d="M375.58,28.22s-4.18-1-5.22,2.09-9.4,10.44-10.44,6.26-3.14-6.26-5.22-8.35-3.14-6.26,0-7.31,9.39-3.13,12.52,0S373.49,22,374.53,22,379.75,25.09,375.58,28.22Z" transform="translate(-5.75 -10.52)"/><path class="cls-1" d="M313.41,11.52s-4.65,6.26.57,8.35,8.35-2.09,11.48-3.13,9.4,1,11.49,0,4.53-3.14,2.79-5.22" transform="translate(-5.75 -10.52)"/><path class="cls-1" d="M344.26,24S338,22,334.86,25.09s-5.22,5.22-7.31,3.13,4.18-9.4,12.53-10.44S349.48,25.09,344.26,24Z" transform="translate(-5.75 -10.52)"/><path class="cls-1" d="M353.65,41.79s-4.17-1-7.31,1.05-8.35,7.3-15.66-1.05,4.18-13.57,9.4-11.48,7.31,3.13,10.44,2.09,5.22,2.08,5.22,4.17S356.78,42.84,353.65,41.79Z" transform="translate(-5.75 -10.52)"/><path class="cls-1" d="M345.3,57.45s-12.53-3.13-17.75-1-9.39-5.22-7.31-10.44,10.44,3.13,14.62,4.17,9.4-1,11.48,0,3.14,4.18,5.22,5.22,6.27,4.18,2.09,4.18S346.34,57.45,345.3,57.45Z" transform="translate(-5.75 -10.52)"/><path class="cls-1" d="M308.15,59.3a3.85,3.85,0,0,1,1.65-5c3.14-2.09,4.18-5.22,6.27-5.22s4.12,8.75,3.62,9.59" transform="translate(-5.75 -10.52)"/><path class="cls-1" d="M281.35,63.85s-2.87-3.27,1.31-5.35,4.18-3.14,5.22-4.18,11.48-2.09,12.53,1a4.75,4.75,0,0,1-.73,4.88" transform="translate(-5.75 -10.52)"/><path class="cls-1" d="M284.29,11.52s1.5,7.3,7.77,4.17,8.35,5.22,10.44,5.22,7.3-1,5.22-5.22,2.43-4.17,2.43-4.17" transform="translate(-5.75 -10.52)"/><path class="cls-1" d="M266.1,11.52s3,2.08-2.23,5.22-8.35,6.26-7.31,9.39,8.35,0,11.48,1.05,11.49,5.22,13.58-2.09a23.42,23.42,0,0,0-.33-13.57" transform="translate(-5.75 -10.52)"/><path class="cls-1" d="M225.72,11.52s-.48,9.39,6.83,9.39,10.44-1,11.48,0,5.22,2.09,7.31-1,4.18-2.09,6.26-3.13,4.36-3.14,2.7-5.22" transform="translate(-5.75 -10.52)"/><path class="cls-1" d="M212.71,18.82a3.23,3.23,0,0,1,2.09-4.17c3.13-1.05,9.4,0,10.44,3.13S228.37,22,228.37,23s-3.13,2.09-5.22,0-5.22,1-7.31,0S212.71,18.82,212.71,18.82Z" transform="translate(-5.75 -10.52)"/><path class="cls-1" d="M247.16,41.79a9.54,9.54,0,0,0-8.35-2.09c-5.22,1-19.83,1-23-3.13S213.76,24,220,26.13s3.13,4.18,16.7,3.13,18.8-3.13,19.84,0S256.56,46,247.16,41.79Z" transform="translate(-5.75 -10.52)"/><path class="cls-1" d="M320.24,42.84s-4.17-1.05-6.26,2.08-7.31,10.44-10.44,7.31-2.09-9.39,4.18-12.53,13.57-7.3,16.7-6.26S329.64,44.92,320.24,42.84Z" transform="translate(-5.75 -10.52)"/><path class="cls-1" d="M271.18,32.4s11.48,1,12.52-4.18,2.09-8.35,6.27-7.31,4.17,5.22,1,8.35,1.05,6.27,0,8.36-2.09,4.17-11.48,3.13S266,35.53,271.18,32.4Z" transform="translate(-5.75 -10.52)"/><path class="cls-1" d="M296.23,50.14s-7.31-3.13-9.39-2.08-6.27,5.22-9.4,3.13-2.09-7.31,5.22-7.31,8.35-1,10.44-2.09S302.5,50.14,296.23,50.14Z" transform="translate(-5.75 -10.52)"/><path class="cls-1" d="M297.28,22s1-2.09,6.26,1,9.4-1,14.62-1,9.39,4.17,4.17,6.26-11.48,2.09-13.57,1-8.35,1-10.44-1S295.19,26.13,297.28,22Z" transform="translate(-5.75 -10.52)"/><path class="cls-1" d="M308.76,35.53s-5.22,2.09-7.31,4.17-6.26-3.13-6.26-5.22,2.09-5.22,7.31-3.13,8.35-1,10.44,0S315,36.57,308.76,35.53Z" transform="translate(-5.75 -10.52)"/><path class="cls-1" d="M234.64,47s6.26-4.17,11.48-1,12.53,0,14.62-1S272.22,47,266,51.19s-4.18,4.17-7.31,5.22S235.68,55.36,234.64,47Z" transform="translate(-5.75 -10.52)"/><path class="cls-1" d="M221.06,79.38s-9.39,2.08-10.44,8.35-9.39,4.17-10.44-2.09,6.27-4.18,10.44-6.26S219,71,222.11,72.07s8.35,1,8.35,0,3.13-4.18,4.18-3.13S232.55,81.46,221.06,79.38Z" transform="translate(-5.75 -10.52)"/><path class="cls-1" d="M243,60.58s-5.22,2.09-6.27,5.22-8.35,1-6.26-5.22,13.57-6.26,14.62-4.17S246.12,60.58,243,60.58Z" transform="translate(-5.75 -10.52)"/><path class="cls-1" d="M211.67,64.76s-6.27,1-9.4-3.13-13.57-2.09-15.66,3.13,9.4,9.4,12.53,7.31,7.31,5.22,9.4,5.22,8.35-1.05,7.3-7.31S211.67,64.76,211.67,64.76Z" transform="translate(-5.75 -10.52)"/><path class="cls-1" d="M214.8,59.54s10.44-1,12.53,5.22-3.13,8.35-5.22,2.09-7.31-1-8.35-3.13S214.8,59.54,214.8,59.54Z" transform="translate(-5.75 -10.52)"/><path class="cls-1" d="M202.27,44.92s5.22-1,6.27,0,6.26-1,5.22-4.17,13.57,1,16.7,4.17,5.22,7.31,1,10.44-8.35,4.18-10.44,0-10.44,2.09-13.57,1,1-4.18-1-5.22S200.18,49.1,202.27,44.92Z" transform="translate(-5.75 -10.52)"/><path class="cls-1" d="M115.87,21.43s0-9.4,6.26-7.31,8.36,1,11.49,1,3.13,7.31-2.09,9.4-6.26,5.22-9.4,5.22-2.08-2.09-3.13-4.18S115.87,22.47,115.87,21.43Z" transform="translate(-5.75 -10.52)"/><path class="cls-1" d="M206.44,32.12s-7-9.14-11.57-6.36-7.55,4.15-9.62.37,1-6.61,5.42-6.44,3.88-5,6.13-5.67,4.48-1.31,10.1,6.29S212.29,33.82,206.44,32.12Z" transform="translate(-5.75 -10.52)"/><path class="cls-1" d="M776.11,49.1s-25.06-1-26.1,0-10.44,12.53-1,11.48,23-3.13,26.1,4.18c0,0,2.46,4.18,4.54-2.09S781,49.1,776.11,49.1Z" transform="translate(-5.75 -10.52)"/><path class="cls-1" d="M732.26,53.28s3.13,2.08,3.13,5.22,1.05,4.17,3.13,4.17,4.18-1,4.18-6.26,3.13-4.18,2.09-7.31-4.18-4.18-5.22-5.22-4.18-6.26-5.22-6.26-4.18,0-5.22,4.17S729.13,51.19,732.26,53.28Z" transform="translate(-5.75 -10.52)"/><path class="cls-1" d="M755.23,31.35s-3.13,2.09-8.35,1-8.36,2.08-7.31,5.22A10.6,10.6,0,0,0,750,44.92c6.26,0,7.31,2.09,8.35,1s0-3.13,0-5.22,3.13-5.22,1-7.31S758.36,31.35,755.23,31.35Z" transform="translate(-5.75 -10.52)"/><path class="cls-1" d="M789,38.66s0,2.09-3.13,4.18-9.76-2.09-9.76-2.09-13.57-2.09-14.62,2.09,10.44,4.17,14.62,2.08c0,0,3.49-2.08,4.54,1S789,50.14,789,50.14" transform="translate(-5.75 -10.52)"/><path class="cls-1" d="M775.06,35.53s-17.74,4.17-12.52-2.09,12.52-2.09,12.52-2.09,4.54,1,5.59-2.09,10.44,1,4.17,6.27S775.06,35.53,775.06,35.53Z" transform="translate(-5.75 -10.52)"/><path class="cls-1" d="M775.06,18.82a15.91,15.91,0,0,0-9.39-1c-5.22,1-9.4-1-10.44,0S752.1,25.09,759.4,23s11.49,3.13,13.58,0S775.06,18.82,775.06,18.82Z" transform="translate(-5.75 -10.52)"/><path class="cls-1" d="M769.84,26.13s-12.52-3.13-16.7,1.05,16.7,2.08,16.7,1Z" transform="translate(-5.75 -10.52)"/><path class="cls-1" d="M752.1,17.78s-18.8-2.09-19.84,0,2.09,5.22,1,6.26-4.17,9.4-1,9.4a15,15,0,0,0,7.31-2.09c2.09-1,10.44,1,10.44-2.09s-1-4.17,0-6.26S753.14,18.82,752.1,17.78Z" transform="translate(-5.75 -10.52)"/><path class="cls-1" d="M730.17,61.63s0-9.4-6.26-7.31-8.35,1-11.49,1-3.13,7.31,2.09,9.4,6.27,5.22,9.4,5.22S726,67.89,727,65.8,730.17,62.67,730.17,61.63Z" transform="translate(-5.75 -10.52)"/><path class="cls-1" d="M727,35.53s-2.09-8.35-7.31-3.13-7.31,6.26-10.44,7.3-1,6.27,2.09,6.27,3.13,9.39,8.35,6.26,5.22-4.17,4.18-9.39S727,38.66,727,35.53Z" transform="translate(-5.75 -10.52)"/><path class="cls-1" d="M729.13,16.74s3.13,10.44-3.13,8.35a124.44,124.44,0,0,0-23-5.22c-8.35-1.05-10.44-2.09-10.44-3.13S729.13,15.69,729.13,16.74Z" transform="translate(-5.75 -10.52)"/><path class="cls-1" d="M686.32,16.74s2.09,8.35-4.17,6.26-8.35-3.13-10.44-2.09-4.18-4.17-2.09-4.17S686.32,15.69,686.32,16.74Z" transform="translate(-5.75 -10.52)"/><path class="cls-1" d="M637.26,16.74s-2.09,9.39-9.4,10.44-8.35-1.05-11.48,0S608,25.09,608,22s-5.22-5.22-4.17-5.22S637.26,15.69,637.26,16.74Z" transform="translate(-5.75 -10.52)"/><path class="cls-1" d="M719.73,30.31s3.13-2.09,1-4.18S716.6,24,713.47,23s-8.35-1-9.4,0-11.48,0-13.57,0-3.13,6.26,3.13,5.22,10.44-1,14.62,0S715.56,31.35,719.73,30.31Z" transform="translate(-5.75 -10.52)"/><path class="cls-1" d="M704.07,35.53s4.18,3.13,6.27,0-1.05-5.22-4.18-5.22-8.35-1-9.4,0-2.08,6.26,2.09,5.22S704.07,35.53,704.07,35.53Z" transform="translate(-5.75 -10.52)"/><path class="cls-1" d="M681.1,35.53s0,2.09,4.18,1,7.31-4.17,5.22-6.26-3.13-4.18-4.18-4.18-13.57-2.09-14.61,0-2.09,11.49,2.09,11.49,3.13-2.09,4.17-2.09S681.1,34.48,681.1,35.53Z" transform="translate(-5.75 -10.52)"/><path class="cls-1" d="M691.54,46s6.27,3.13,10.44,1,4.18-8.35,0-8.35-29.23,2.09-31.32,0-6.26-3.13-5.22,2.09,3.14,10.44,11.49,7.31S691.54,46,691.54,46Z" transform="translate(-5.75 -10.52)"/><path class="cls-1" d="M691.54,53.28s10.44-3.14,13.58-2.09,0,4.17,0,6.26,5.22,6.27,3.13,8.35-4.18,3.14-7.31,1-7.31,1-9.4,3.13S679,73.11,679,67.89s0-6.26,4.17-7.31S687.37,53.28,691.54,53.28Z" transform="translate(-5.75 -10.52)"/><path class="cls-1" d="M651.87,30.31s-1-2.09-5.22-1-1-4.17-3.13-5.22-4.18,0-8.35,3.14-11.49,6.26-12.53,9.39,1,11.49,6.26,5.22,12.53-6.26,16.71-7.31S651.87,33.44,651.87,30.31Z" transform="translate(-5.75 -10.52)"/><path class="cls-1" d="M635.17,48.06s13.57-1.05,14.61,0,8.36,4.17,9.4,0-2.09-4.18-3.13-7.31,0-6.27-3.13-6.27-3.14,3.14-5.22,4.18-12.53-1-13.58,2.09-2.08,6.26,1,7.31" transform="translate(-5.75 -10.52)"/><path class="cls-1" d="M665.44,63.72s8.36,3.13,11.49-3.14,6.26-3.13,7.31-4.17,0-7.31-6.27-6.27-12.53,6.27-18.79,6.27-26.1-3.13-29.23,1-2.09,7.31,4.17,7.31S662.31,62.67,665.44,63.72Z" transform="translate(-5.75 -10.52)"/><path class="cls-1" d="M651.87,72.07s5.22,1,6.27,5.22,16.7-3.13,17.74-5.22-2.08-5.22-7.3-4.18-7.31-1-10.44-1S648.74,66.85,651.87,72.07Z" transform="translate(-5.75 -10.52)"/><path class="cls-1" d="M666.86,89s.67-6.52-2.46-7.57-6.26,0-8.35,3.14-10.44,7.3-19.84,6.26S631.5,102,631.5,102" transform="translate(-5.75 -10.52)"/><path class="cls-1" d="M610.11,75.2s4.18,2.09,3.13,5.22-2.08,6.26,7.31,6.26,23,3.14,26.1,1,9.4-12.53,1.05-15.66-14.62,1-16.71,0-6.26-9.4-12.53-7.31S605.94,72.07,610.11,75.2Z" transform="translate(-5.75 -10.52)"/><path class="cls-1" d="M624.73,56.41s0-3.13,5.22-3.13,8.35-3.14,3.13-4.18S622.64,44.92,619.51,46s-5.22,5.22-7.31,7.31-6.26,1-8.35,2.08S595.5,65.8,602.8,65.8s10.44-6.26,12.53-6.26S624.73,58.5,624.73,56.41Z" transform="translate(-5.75 -10.52)"/><path class="cls-1" d="M595.5,46s5.22-3.13,8.35-2.09,14.61,3.13,14.61-1-2.08-6.27-6.26-8.36-6.26-4.17-6.26-5.22-3.14-2.08-7.31,2.09-8.35,3.13-11.49,2.09-11.48,4.18-4.17,9.4S594.45,46,595.5,46Z" transform="translate(-5.75 -10.52)"/><path class="cls-1" d="M586.1,60.58s4.18-5.22,8.35-5.22,15.66-3.13,15.66-5.22-2.09-3.13-8.35-1-10.44-1-12.53,0-11.48,5.22-8.35,9.4S586.1,60.58,586.1,60.58Z" transform="translate(-5.75 -10.52)"/><path class="cls-1" d="M595.5,95s-1,3.13,6.26,3.13,14.62,1,17.75,1,9.39-4.17,6.26-7.31-2.09-4.17-4.17-3.13-8.36,2.09-13.58,1S592.36,86.68,595.5,95Z" transform="translate(-5.75 -10.52)"/><path class="cls-1" d="M596.63,107.49c-.28-1.11-1.71-1.61-1.71-1.61s-4.64-.4-3.6-8.76-4.18-9.39-5.22-7.3-2.09,6.26-7.31,6.26-2,5.69-2,5.69.76,2.32,4.19,4.58" transform="translate(-5.75 -10.52)"/><path class="cls-1" d="M588.19,83.55s9.39-2.09,14.61,1,9.4-3.14,6.27-7.31-7.31-6.27-10.44-3.13-10.44,3.13-12.53,3.13-5.22,0-4.18,3.13S584,84.6,588.19,83.55Z" transform="translate(-5.75 -10.52)"/><path class="cls-1" d="M539.77,86.29c-2.48-10.83,9.79-2.74,15,.39s5.22-1,10.44,1S569,99.21,569,99.21s1.38,2.83-1,3" transform="translate(-5.75 -10.52)"/><path class="cls-1" d="M508.84,64.76s14.62,0,20.88,8.35,14.62,5.22,11.49-2.09-11.49-8.35-15.66-8.35-9.4-3.13-11.49-6.26-8.35-2.09-8.35,4.17S508.84,64.76,508.84,64.76Z" transform="translate(-5.75 -10.52)"/><path class="cls-1" d="M452,11.52c-.81,3.13-9.65,3.13-9.65,3.13-1.74,2.09.7,4.17,2.79,5.22s8.35-1.05,11.48,0,6.27,5.22,11.49,3.13.56-8.35.56-8.35-4.15-2.9-3.74-3.54" transform="translate(-5.75 -10.52)"/><path class="cls-1" d="M437.85,27.18s6.27-2.09,9.4,1,5.22,5.22,7.31,3.13S450.38,22,442,20.91,432.63,28.22,437.85,27.18Z" transform="translate(-5.75 -10.52)"/><path class="cls-1" d="M428.46,44.92s4.17-1,7.3,1,8.36,7.31,15.66-1S447.25,31.35,442,33.44s-7.31,3.13-10.44,2.09-5.22,2.09-5.22,4.17S425.32,46,428.46,44.92Z" transform="translate(-5.75 -10.52)"/><path class="cls-1" d="M501,70.24s3.28-2.86-.59-5.48-3.72-3.66-4.62-4.83-11.11-3.58-12.56-.62a4.73,4.73,0,0,0,.08,4.93" transform="translate(-5.75 -10.52)"/><path class="cls-1" d="M471.67,11.09c-4.12-.42.29,3.56.29,3.56s4.52,0,2.43,4.17S477.52,24,479.61,24s4.18-8.35,10.44-5.22,7.77-4.17,7.77-4.17,4.26-4,0-3.59" transform="translate(-5.75 -10.52)"/><path class="cls-1" d="M526.92,11.05c-5.25-.46-5.11,3.6-5.11,3.6-1.66,2.09.61,4.17,2.69,5.22s4.18,0,6.27,3.13,6.26,2.09,7.31,1,4.17,0,11.48,0,6.83-9.39,6.83-9.39A3.73,3.73,0,0,0,552,11.06" transform="translate(-5.75 -10.52)"/><path class="cls-1" d="M569.4,22a3.24,3.24,0,0,0-2.09-4.18c-3.13-1-9.4,0-10.44,3.13s-3.13,4.18-3.13,5.22,3.13,2.09,5.22,0,5.22,1.05,7.3,0S569.4,22,569.4,22Z" transform="translate(-5.75 -10.52)"/><path class="cls-1" d="M534.94,44.92a9.55,9.55,0,0,1,8.36-2.08c5.22,1,19.83,1,23-3.14s2.09-12.52-4.17-10.44S559,33.44,545.38,32.4s-18.79-3.14-19.83,0S525.55,49.1,534.94,44.92Z" transform="translate(-5.75 -10.52)"/><path class="cls-1" d="M461.86,46s4.18-1,6.27,2.09,7.31,10.44,10.44,7.3,2.09-9.39-4.18-12.52-13.57-7.31-16.7-6.27S452.47,48.06,461.86,46Z" transform="translate(-5.75 -10.52)"/><path class="cls-1" d="M510.93,35.53s-11.48,1-12.53-4.18S496.32,23,492.14,24s-4.18,5.22-1,8.36-1.05,6.26,0,8.35,2.08,4.17,11.48,3.13S516.15,38.66,510.93,35.53Z" transform="translate(-5.75 -10.52)"/><path class="cls-1" d="M485.88,53.28s7.3-3.14,9.39-2.09,6.27,5.22,9.4,3.13S506.76,47,499.45,47,491.1,46,489,44.92,479.61,53.28,485.88,53.28Z" transform="translate(-5.75 -10.52)"/><path class="cls-1" d="M484.83,25.09s-1-2.09-6.26,1-9.4-1-14.62-1-9.39,4.17-4.17,6.26,11.48,2.09,13.57,1,8.35,1,10.44-1S486.92,29.26,484.83,25.09Z" transform="translate(-5.75 -10.52)"/><path class="cls-1" d="M473.35,38.66s5.22,2.09,7.31,4.18,6.26-3.14,6.26-5.22-2.09-5.22-7.31-3.14-8.35-1-10.44,0S467.08,39.7,473.35,38.66Z" transform="translate(-5.75 -10.52)"/><path class="cls-1" d="M547.47,50.14S541.21,46,536,49.1s-12.53,0-14.62-1-11.48,2.08-5.22,6.26,4.18,4.18,7.31,5.22S546.43,58.5,547.47,50.14Z" transform="translate(-5.75 -10.52)"/><path class="cls-1" d="M561,82.51s9.4,2.09,10.44,8.35,9.4,4.18,10.44-2.09-6.26-4.17-10.44-6.26S563.13,74.16,560,75.2s-8.35,1-8.35,0-3.13-4.18-4.18-3.13S549.56,84.6,561,82.51Z" transform="translate(-5.75 -10.52)"/><path class="cls-1" d="M539.12,63.72s5.22,2.08,6.26,5.22,8.36,1,6.27-5.22S538.08,57.45,537,59.54,536,63.72,539.12,63.72Z" transform="translate(-5.75 -10.52)"/><path class="cls-1" d="M570.44,67.89s6.26,1,9.4-3.13,13.57-2.09,15.66,3.13-9.4,9.4-12.53,7.31-7.31,5.22-9.4,5.22-8.35-1-7.31-7.31S570.44,67.89,570.44,67.89Z" transform="translate(-5.75 -10.52)"/><path class="cls-1" d="M567.31,62.67s-10.44-1-12.53,5.22S557.91,76.24,560,70s7.31-1,8.35-3.13S567.31,62.67,567.31,62.67Z" transform="translate(-5.75 -10.52)"/><path class="cls-1" d="M579.84,48.06s-5.22-1.05-6.27,0-6.26-1.05-5.22-4.18-13.57,1-16.7,4.18-5.22,7.3-1,10.44,8.36,4.17,10.44,0,10.44,2.08,13.58,1-1-4.18,1-5.22S581.92,52.23,579.84,48.06Z" transform="translate(-5.75 -10.52)"/><path class="cls-1" d="M666.24,24.56s0-9.4-6.27-7.31-8.35,1.05-11.48,1.05-3.13,7.3,2.09,9.39,6.26,5.22,9.39,5.22,2.09-2.09,3.14-4.17S666.24,25.6,666.24,24.56Z" transform="translate(-5.75 -10.52)"/><path class="cls-1" d="M575.67,35.25s7-9.14,11.57-6.36,7.55,4.15,9.62.37-1-6.61-5.42-6.44-3.89-5-6.13-5.67-4.48-1.31-10.1,6.3S569.82,37,575.67,35.25Z" transform="translate(-5.75 -10.52)"/><path class="cls-1" d="M416.29,60.58s2.09-2.08,0-6.26-4.17-6.26,0-8.35,2.09-3.13,4.18-4.18,4.17,2.09,5.22,6.27S433,51.19,433,53.28s-5.22,0-8.36,3.13S418.38,64.76,416.29,60.58Z" transform="translate(-5.75 -10.52)"/><path class="cls-1" d="M412.12,36.57s-1.05-7.31,3.13-7.31,12.53-1,12.53-2.08S434,26.13,434,29.26s-6.26,2.09-7.31,4.18-4.17,7.31-7.31,7.31S413.16,40.75,412.12,36.57Z" transform="translate(-5.75 -10.52)"/><path class="cls-1" d="M413.11,21.74s4.23-5,5.27-1.87,5.22,7.31,7.31,4.17,5.22-1,7.31-5.22-3.23-7.5-3.23-7.5" transform="translate(-5.75 -10.52)"/><path class="cls-1" d="M452.64,57.17s-6.07.28-4-3.89,3.13-6.27,6.26-5.22,8.35,2.08,9.4,1,6.26,3.13,4.17,6.26a9.74,9.74,0,0,1-5.38,3.9" transform="translate(-5.75 -10.52)"/><path class="cls-1" d="M510.26,74.82s-2.1-.66-2.1-3.8,4.18-5.22,6.27-3.13,5.22,1,7.31,2.09,11.14,8,3.48,10.78" transform="translate(-5.75 -10.52)"/><path class="cls-1" d="M512.34,31.35s-7.31,4.18-9.4-1-7.3-9.4-2.08-12.53,5.22,2.09,9.39,1,4.18-5.22,6.27-4.17S521.74,24,524.87,24s-5.22,9.4-4.18,11.49-6.26,3.13-6.26-1.05S512.34,31.35,512.34,31.35Z" transform="translate(-5.75 -10.52)"/><path class="cls-1" d="M745.94,70.43s-8.1-1.49-5-4.63,10.44-2.08,17.74-3.13,16.14,2.54,14.34,10.15" transform="translate(-5.75 -10.52)"/><path class="cls-1" d="M789,64.76s-8.35-2.09-8.35,3.13,1,1,3.13,2.09,2.22,4.65,2.67,4.93" transform="translate(-5.75 -10.52)"/><path class="cls-1" d="M789,14.65s-9.4-2.09-9.4,0-3.13,5.22-3.13,7.31,6.27,3.13,8.35,0S789,22,789,22" transform="translate(-5.75 -10.52)"/></svg>